<mxfile host="app.diagrams.net" agent="Mozilla/5.0 (Macintosh; Intel Mac OS X 10_15_7) AppleWebKit/605.1.15 (KHTML, like Gecko) Version/18.0.1 Safari/605.1.15" version="25.0.3">
  <diagram name="Side-1" id="wtySHdPiUahqh2xDonqv">
    <mxGraphModel dx="1763" dy="924" grid="0" gridSize="10" guides="1" tooltips="1" connect="1" arrows="1" fold="1" page="0" pageScale="1" pageWidth="827" pageHeight="1169" math="0" shadow="0">
      <root>
        <mxCell id="0" />
        <mxCell id="1" parent="0" />
        <mxCell id="CZTcMMlewTJvzk4eFRu1-1" style="edgeStyle=orthogonalEdgeStyle;rounded=0;orthogonalLoop=1;jettySize=auto;html=1;exitX=0.5;exitY=1;exitDx=0;exitDy=0;entryX=0.5;entryY=0;entryDx=0;entryDy=0;" edge="1" parent="1" source="CZTcMMlewTJvzk4eFRu1-2" target="CZTcMMlewTJvzk4eFRu1-4">
          <mxGeometry relative="1" as="geometry" />
        </mxCell>
        <mxCell id="CZTcMMlewTJvzk4eFRu1-2" value="Public Timeline" style="rounded=1;arcSize=10;whiteSpace=wrap;html=1;align=center;fillColor=#d5e8d4;strokeColor=#82b366;" vertex="1" parent="1">
          <mxGeometry x="480" y="140" width="100" height="30" as="geometry" />
        </mxCell>
        <mxCell id="CZTcMMlewTJvzk4eFRu1-3" style="edgeStyle=orthogonalEdgeStyle;rounded=0;orthogonalLoop=1;jettySize=auto;html=1;exitX=0.5;exitY=1;exitDx=0;exitDy=0;entryX=0.5;entryY=0;entryDx=0;entryDy=0;" edge="1" parent="1" source="CZTcMMlewTJvzk4eFRu1-4" target="CZTcMMlewTJvzk4eFRu1-25">
          <mxGeometry relative="1" as="geometry" />
        </mxCell>
        <mxCell id="CZTcMMlewTJvzk4eFRu1-4" value="Login" style="ellipse;whiteSpace=wrap;html=1;fillColor=#f8cecc;strokeColor=#b85450;" vertex="1" parent="1">
          <mxGeometry x="480" y="190" width="100" height="30" as="geometry" />
        </mxCell>
        <mxCell id="CZTcMMlewTJvzk4eFRu1-5" style="edgeStyle=orthogonalEdgeStyle;rounded=0;orthogonalLoop=1;jettySize=auto;html=1;exitX=0.5;exitY=1;exitDx=0;exitDy=0;entryX=0.5;entryY=0;entryDx=0;entryDy=0;" edge="1" parent="1" source="CZTcMMlewTJvzk4eFRu1-6" target="CZTcMMlewTJvzk4eFRu1-9">
          <mxGeometry relative="1" as="geometry" />
        </mxCell>
        <mxCell id="CZTcMMlewTJvzk4eFRu1-6" value="Login Page" style="rounded=1;arcSize=10;whiteSpace=wrap;html=1;align=center;fillColor=#d5e8d4;strokeColor=#82b366;" vertex="1" parent="1">
          <mxGeometry x="480" y="290" width="100" height="30" as="geometry" />
        </mxCell>
        <mxCell id="CZTcMMlewTJvzk4eFRu1-7" style="edgeStyle=orthogonalEdgeStyle;rounded=0;orthogonalLoop=1;jettySize=auto;html=1;exitX=0.5;exitY=1;exitDx=0;exitDy=0;entryX=0.5;entryY=0;entryDx=0;entryDy=0;" edge="1" parent="1" source="CZTcMMlewTJvzk4eFRu1-9" target="CZTcMMlewTJvzk4eFRu1-11">
          <mxGeometry relative="1" as="geometry" />
        </mxCell>
        <mxCell id="CZTcMMlewTJvzk4eFRu1-8" style="edgeStyle=orthogonalEdgeStyle;rounded=0;orthogonalLoop=1;jettySize=auto;html=1;exitX=1;exitY=0.5;exitDx=0;exitDy=0;entryX=0.5;entryY=0;entryDx=0;entryDy=0;" edge="1" parent="1" source="CZTcMMlewTJvzk4eFRu1-9" target="CZTcMMlewTJvzk4eFRu1-15">
          <mxGeometry relative="1" as="geometry">
            <Array as="points">
              <mxPoint x="650" y="355" />
              <mxPoint x="650" y="560" />
              <mxPoint x="530" y="560" />
            </Array>
          </mxGeometry>
        </mxCell>
        <mxCell id="CZTcMMlewTJvzk4eFRu1-9" value="Github Login" style="shape=hexagon;perimeter=hexagonPerimeter2;whiteSpace=wrap;html=1;fixedSize=1;fillColor=#fff2cc;strokeColor=#d6b656;" vertex="1" parent="1">
          <mxGeometry x="480" y="340" width="100" height="30" as="geometry" />
        </mxCell>
        <mxCell id="CZTcMMlewTJvzk4eFRu1-10" style="edgeStyle=orthogonalEdgeStyle;rounded=0;orthogonalLoop=1;jettySize=auto;html=1;exitX=0.5;exitY=1;exitDx=0;exitDy=0;entryX=0.5;entryY=0;entryDx=0;entryDy=0;" edge="1" parent="1" source="CZTcMMlewTJvzk4eFRu1-11" target="CZTcMMlewTJvzk4eFRu1-13">
          <mxGeometry relative="1" as="geometry" />
        </mxCell>
        <mxCell id="CZTcMMlewTJvzk4eFRu1-11" value="GitHub" style="ellipse;whiteSpace=wrap;html=1;fillColor=#f8cecc;strokeColor=#b85450;" vertex="1" parent="1">
          <mxGeometry x="480" y="390" width="100" height="30" as="geometry" />
        </mxCell>
        <mxCell id="CZTcMMlewTJvzk4eFRu1-12" style="edgeStyle=orthogonalEdgeStyle;rounded=0;orthogonalLoop=1;jettySize=auto;html=1;exitX=0.5;exitY=1;exitDx=0;exitDy=0;entryX=0.5;entryY=0;entryDx=0;entryDy=0;" edge="1" parent="1" source="CZTcMMlewTJvzk4eFRu1-13" target="CZTcMMlewTJvzk4eFRu1-32">
          <mxGeometry relative="1" as="geometry" />
        </mxCell>
        <mxCell id="CZTcMMlewTJvzk4eFRu1-13" value="GitHub Login Page" style="rounded=1;arcSize=10;whiteSpace=wrap;html=1;align=center;fillColor=#d5e8d4;strokeColor=#82b366;" vertex="1" parent="1">
          <mxGeometry x="450" y="440" width="160" height="30" as="geometry" />
        </mxCell>
        <mxCell id="CZTcMMlewTJvzk4eFRu1-14" style="edgeStyle=orthogonalEdgeStyle;rounded=0;orthogonalLoop=1;jettySize=auto;html=1;exitX=0.5;exitY=1;exitDx=0;exitDy=0;entryX=0.5;entryY=0;entryDx=0;entryDy=0;" edge="1" parent="1" source="CZTcMMlewTJvzk4eFRu1-15" target="CZTcMMlewTJvzk4eFRu1-19">
          <mxGeometry relative="1" as="geometry" />
        </mxCell>
        <mxCell id="CZTcMMlewTJvzk4eFRu1-15" value="Login User" style="rounded=1;arcSize=10;whiteSpace=wrap;html=1;align=center;fillColor=#d5e8d4;strokeColor=#82b366;" vertex="1" parent="1">
          <mxGeometry x="480" y="610" width="100" height="30" as="geometry" />
        </mxCell>
        <mxCell id="CZTcMMlewTJvzk4eFRu1-16" style="edgeStyle=orthogonalEdgeStyle;rounded=0;orthogonalLoop=1;jettySize=auto;html=1;exitX=0;exitY=0.5;exitDx=0;exitDy=0;exitPerimeter=0;entryX=1;entryY=0.5;entryDx=0;entryDy=0;" edge="1" parent="1" source="CZTcMMlewTJvzk4eFRu1-17" target="CZTcMMlewTJvzk4eFRu1-15">
          <mxGeometry relative="1" as="geometry" />
        </mxCell>
        <mxCell id="CZTcMMlewTJvzk4eFRu1-17" value="UserName or Email,&amp;nbsp;&lt;span style=&quot;background-color: initial;&quot;&gt;Password&lt;/span&gt;" style="shape=note;size=20;whiteSpace=wrap;html=1;fillColor=#dae8fc;strokeColor=#6c8ebf;align=left;" vertex="1" parent="1">
          <mxGeometry x="600" y="610" width="180" height="30" as="geometry" />
        </mxCell>
        <mxCell id="CZTcMMlewTJvzk4eFRu1-18" style="edgeStyle=orthogonalEdgeStyle;rounded=0;orthogonalLoop=1;jettySize=auto;html=1;exitX=0.5;exitY=1;exitDx=0;exitDy=0;entryX=0.5;entryY=0;entryDx=0;entryDy=0;" edge="1" parent="1" source="CZTcMMlewTJvzk4eFRu1-19" target="CZTcMMlewTJvzk4eFRu1-22">
          <mxGeometry relative="1" as="geometry" />
        </mxCell>
        <mxCell id="CZTcMMlewTJvzk4eFRu1-19" value="Login" style="ellipse;whiteSpace=wrap;html=1;fillColor=#f8cecc;strokeColor=#b85450;" vertex="1" parent="1">
          <mxGeometry x="480" y="660" width="100" height="30" as="geometry" />
        </mxCell>
        <mxCell id="CZTcMMlewTJvzk4eFRu1-20" style="edgeStyle=orthogonalEdgeStyle;rounded=0;orthogonalLoop=1;jettySize=auto;html=1;exitX=0.5;exitY=1;exitDx=0;exitDy=0;entryX=0.5;entryY=0;entryDx=0;entryDy=0;" edge="1" parent="1" source="CZTcMMlewTJvzk4eFRu1-22" target="CZTcMMlewTJvzk4eFRu1-23">
          <mxGeometry relative="1" as="geometry" />
        </mxCell>
        <mxCell id="CZTcMMlewTJvzk4eFRu1-21" style="edgeStyle=orthogonalEdgeStyle;rounded=0;orthogonalLoop=1;jettySize=auto;html=1;exitX=1;exitY=0.5;exitDx=0;exitDy=0;entryX=1;entryY=0.5;entryDx=0;entryDy=0;" edge="1" parent="1" source="CZTcMMlewTJvzk4eFRu1-22" target="CZTcMMlewTJvzk4eFRu1-25">
          <mxGeometry relative="1" as="geometry">
            <Array as="points">
              <mxPoint x="790" y="725" />
              <mxPoint x="790" y="255" />
            </Array>
          </mxGeometry>
        </mxCell>
        <mxCell id="CZTcMMlewTJvzk4eFRu1-22" value="Succesful" style="shape=hexagon;perimeter=hexagonPerimeter2;whiteSpace=wrap;html=1;fixedSize=1;fillColor=#fff2cc;strokeColor=#d6b656;" vertex="1" parent="1">
          <mxGeometry x="480" y="710" width="100" height="30" as="geometry" />
        </mxCell>
        <mxCell id="CZTcMMlewTJvzk4eFRu1-23" value="Public Timeline" style="rounded=1;arcSize=10;whiteSpace=wrap;html=1;align=center;fillColor=#d5e8d4;strokeColor=#82b366;" vertex="1" parent="1">
          <mxGeometry x="480" y="759.5" width="100" height="30" as="geometry" />
        </mxCell>
        <mxCell id="CZTcMMlewTJvzk4eFRu1-24" style="edgeStyle=orthogonalEdgeStyle;rounded=0;orthogonalLoop=1;jettySize=auto;html=1;exitX=0.5;exitY=1;exitDx=0;exitDy=0;entryX=0.5;entryY=0;entryDx=0;entryDy=0;" edge="1" parent="1" source="CZTcMMlewTJvzk4eFRu1-25" target="CZTcMMlewTJvzk4eFRu1-6">
          <mxGeometry relative="1" as="geometry" />
        </mxCell>
        <mxCell id="CZTcMMlewTJvzk4eFRu1-25" value="" style="shape=hexagon;perimeter=hexagonPerimeter2;whiteSpace=wrap;html=1;fixedSize=1;fillColor=#fff2cc;strokeColor=#d6b656;size=40;" vertex="1" parent="1">
          <mxGeometry x="510" y="240" width="40" height="30" as="geometry" />
        </mxCell>
        <mxCell id="CZTcMMlewTJvzk4eFRu1-26" value="&lt;font style=&quot;font-size: 7px;&quot;&gt;Yes&lt;/font&gt;" style="text;html=1;align=center;verticalAlign=middle;resizable=0;points=[];autosize=1;strokeColor=none;fillColor=none;" vertex="1" parent="1">
          <mxGeometry x="522" y="360" width="30" height="30" as="geometry" />
        </mxCell>
        <mxCell id="CZTcMMlewTJvzk4eFRu1-27" value="&lt;font style=&quot;font-size: 7px;&quot;&gt;Yes&lt;/font&gt;" style="text;html=1;align=center;verticalAlign=middle;resizable=0;points=[];autosize=1;strokeColor=none;fillColor=none;" vertex="1" parent="1">
          <mxGeometry x="523" y="729.5" width="30" height="30" as="geometry" />
        </mxCell>
        <mxCell id="CZTcMMlewTJvzk4eFRu1-28" value="&lt;font style=&quot;font-size: 7px;&quot;&gt;No&lt;/font&gt;" style="text;html=1;align=center;verticalAlign=middle;resizable=0;points=[];autosize=1;strokeColor=none;fillColor=none;" vertex="1" parent="1">
          <mxGeometry x="573" y="702.5" width="30" height="30" as="geometry" />
        </mxCell>
        <mxCell id="CZTcMMlewTJvzk4eFRu1-29" value="&lt;font style=&quot;font-size: 7px;&quot;&gt;No&lt;/font&gt;" style="text;html=1;align=center;verticalAlign=middle;resizable=0;points=[];autosize=1;strokeColor=none;fillColor=none;" vertex="1" parent="1">
          <mxGeometry x="573" y="334" width="30" height="30" as="geometry" />
        </mxCell>
        <mxCell id="CZTcMMlewTJvzk4eFRu1-30" style="edgeStyle=orthogonalEdgeStyle;rounded=0;orthogonalLoop=1;jettySize=auto;html=1;exitX=0.5;exitY=1;exitDx=0;exitDy=0;entryX=0;entryY=0.5;entryDx=0;entryDy=0;" edge="1" parent="1" source="CZTcMMlewTJvzk4eFRu1-32" target="CZTcMMlewTJvzk4eFRu1-23">
          <mxGeometry relative="1" as="geometry">
            <mxPoint x="530" y="537.5" as="targetPoint" />
            <Array as="points">
              <mxPoint x="530" y="540" />
              <mxPoint x="430" y="540" />
              <mxPoint x="430" y="775" />
            </Array>
          </mxGeometry>
        </mxCell>
        <mxCell id="CZTcMMlewTJvzk4eFRu1-31" style="edgeStyle=orthogonalEdgeStyle;rounded=0;orthogonalLoop=1;jettySize=auto;html=1;exitX=0;exitY=0.5;exitDx=0;exitDy=0;entryX=0;entryY=0.5;entryDx=0;entryDy=0;" edge="1" parent="1" source="CZTcMMlewTJvzk4eFRu1-32" target="CZTcMMlewTJvzk4eFRu1-13">
          <mxGeometry relative="1" as="geometry" />
        </mxCell>
        <mxCell id="CZTcMMlewTJvzk4eFRu1-32" value="Succesful" style="shape=hexagon;perimeter=hexagonPerimeter2;whiteSpace=wrap;html=1;fixedSize=1;fillColor=#fff2cc;strokeColor=#d6b656;" vertex="1" parent="1">
          <mxGeometry x="480" y="487.5" width="100" height="30" as="geometry" />
        </mxCell>
        <mxCell id="CZTcMMlewTJvzk4eFRu1-33" value="&lt;font style=&quot;font-size: 7px;&quot;&gt;Yes&lt;/font&gt;" style="text;html=1;align=center;verticalAlign=middle;resizable=0;points=[];autosize=1;strokeColor=none;fillColor=none;" vertex="1" parent="1">
          <mxGeometry x="522" y="510" width="30" height="30" as="geometry" />
        </mxCell>
        <mxCell id="CZTcMMlewTJvzk4eFRu1-34" value="&lt;font style=&quot;font-size: 7px;&quot;&gt;No&lt;/font&gt;" style="text;html=1;align=center;verticalAlign=middle;resizable=0;points=[];autosize=1;strokeColor=none;fillColor=none;" vertex="1" parent="1">
          <mxGeometry x="458" y="481" width="30" height="30" as="geometry" />
        </mxCell>
        <mxCell id="CZTcMMlewTJvzk4eFRu1-35" style="edgeStyle=orthogonalEdgeStyle;rounded=0;orthogonalLoop=1;jettySize=auto;html=1;exitX=0.5;exitY=1;exitDx=0;exitDy=0;entryX=0.5;entryY=0;entryDx=0;entryDy=0;" edge="1" parent="1" source="CZTcMMlewTJvzk4eFRu1-36">
          <mxGeometry relative="1" as="geometry">
            <mxPoint x="220" y="190" as="targetPoint" />
          </mxGeometry>
        </mxCell>
        <mxCell id="CZTcMMlewTJvzk4eFRu1-36" value="Public Timeline" style="rounded=1;arcSize=10;whiteSpace=wrap;html=1;align=center;fillColor=#d5e8d4;strokeColor=#82b366;" vertex="1" parent="1">
          <mxGeometry x="170" y="140" width="100" height="30" as="geometry" />
        </mxCell>
        <mxCell id="CZTcMMlewTJvzk4eFRu1-37" style="edgeStyle=orthogonalEdgeStyle;rounded=0;orthogonalLoop=1;jettySize=auto;html=1;exitX=0.5;exitY=1;exitDx=0;exitDy=0;entryX=0.5;entryY=0;entryDx=0;entryDy=0;" edge="1" parent="1">
          <mxGeometry relative="1" as="geometry">
            <mxPoint x="220" y="220" as="sourcePoint" />
            <mxPoint x="220" y="240" as="targetPoint" />
          </mxGeometry>
        </mxCell>
        <mxCell id="CZTcMMlewTJvzk4eFRu1-38" style="edgeStyle=orthogonalEdgeStyle;rounded=0;orthogonalLoop=1;jettySize=auto;html=1;exitX=0.5;exitY=1;exitDx=0;exitDy=0;entryX=0.5;entryY=0;entryDx=0;entryDy=0;" edge="1" parent="1">
          <mxGeometry relative="1" as="geometry">
            <mxPoint x="220" y="320" as="sourcePoint" />
            <mxPoint x="220" y="340" as="targetPoint" />
          </mxGeometry>
        </mxCell>
        <mxCell id="CZTcMMlewTJvzk4eFRu1-39" style="edgeStyle=orthogonalEdgeStyle;rounded=0;orthogonalLoop=1;jettySize=auto;html=1;exitX=0;exitY=0.5;exitDx=0;exitDy=0;entryX=0;entryY=0.5;entryDx=0;entryDy=0;" edge="1" parent="1" source="CZTcMMlewTJvzk4eFRu1-47" target="CZTcMMlewTJvzk4eFRu1-45">
          <mxGeometry relative="1" as="geometry">
            <Array as="points">
              <mxPoint x="130" y="305" />
              <mxPoint x="130" y="205" />
            </Array>
            <mxPoint x="330" y="260" as="targetPoint" />
          </mxGeometry>
        </mxCell>
        <mxCell id="CZTcMMlewTJvzk4eFRu1-40" style="edgeStyle=orthogonalEdgeStyle;rounded=0;orthogonalLoop=1;jettySize=auto;html=1;exitX=0;exitY=0.5;exitDx=0;exitDy=0;exitPerimeter=0;entryX=1;entryY=0.5;entryDx=0;entryDy=0;" edge="1" parent="1" source="CZTcMMlewTJvzk4eFRu1-41" target="CZTcMMlewTJvzk4eFRu1-45">
          <mxGeometry relative="1" as="geometry" />
        </mxCell>
        <mxCell id="CZTcMMlewTJvzk4eFRu1-41" value="Cheep Text" style="shape=note;size=20;whiteSpace=wrap;html=1;fillColor=#dae8fc;strokeColor=#6c8ebf;align=left;" vertex="1" parent="1">
          <mxGeometry x="300" y="190" width="90" height="30" as="geometry" />
        </mxCell>
        <mxCell id="CZTcMMlewTJvzk4eFRu1-42" style="edgeStyle=orthogonalEdgeStyle;rounded=0;orthogonalLoop=1;jettySize=auto;html=1;exitX=0.5;exitY=1;exitDx=0;exitDy=0;entryX=0.5;entryY=0;entryDx=0;entryDy=0;" edge="1" parent="1">
          <mxGeometry relative="1" as="geometry">
            <mxPoint x="220" y="270" as="sourcePoint" />
            <mxPoint x="220" y="290" as="targetPoint" />
          </mxGeometry>
        </mxCell>
        <mxCell id="CZTcMMlewTJvzk4eFRu1-43" value="&lt;font style=&quot;font-size: 7px;&quot;&gt;Yes&lt;/font&gt;" style="text;html=1;align=center;verticalAlign=middle;resizable=0;points=[];autosize=1;strokeColor=none;fillColor=none;" vertex="1" parent="1">
          <mxGeometry x="213" y="310" width="30" height="30" as="geometry" />
        </mxCell>
        <mxCell id="CZTcMMlewTJvzk4eFRu1-44" value="&lt;font style=&quot;font-size: 7px;&quot;&gt;No&lt;/font&gt;" style="text;html=1;align=center;verticalAlign=middle;resizable=0;points=[];autosize=1;strokeColor=none;fillColor=none;" vertex="1" parent="1">
          <mxGeometry x="149" y="285" width="30" height="30" as="geometry" />
        </mxCell>
        <mxCell id="CZTcMMlewTJvzk4eFRu1-45" value="Cheep Box" style="rounded=1;arcSize=10;whiteSpace=wrap;html=1;align=center;fillColor=#d5e8d4;strokeColor=#82b366;" vertex="1" parent="1">
          <mxGeometry x="170" y="190" width="100" height="30" as="geometry" />
        </mxCell>
        <mxCell id="CZTcMMlewTJvzk4eFRu1-46" value="Share" style="ellipse;whiteSpace=wrap;html=1;fillColor=#f8cecc;strokeColor=#b85450;" vertex="1" parent="1">
          <mxGeometry x="170" y="240" width="100" height="30" as="geometry" />
        </mxCell>
        <mxCell id="CZTcMMlewTJvzk4eFRu1-47" value="Succesful" style="shape=hexagon;perimeter=hexagonPerimeter2;whiteSpace=wrap;html=1;fixedSize=1;fillColor=#fff2cc;strokeColor=#d6b656;" vertex="1" parent="1">
          <mxGeometry x="170" y="290" width="100" height="30" as="geometry" />
        </mxCell>
        <mxCell id="CZTcMMlewTJvzk4eFRu1-48" style="edgeStyle=orthogonalEdgeStyle;rounded=0;orthogonalLoop=1;jettySize=auto;html=1;exitX=0.5;exitY=1;exitDx=0;exitDy=0;entryX=0.5;entryY=0;entryDx=0;entryDy=0;" edge="1" parent="1" source="CZTcMMlewTJvzk4eFRu1-49" target="CZTcMMlewTJvzk4eFRu1-68">
          <mxGeometry relative="1" as="geometry" />
        </mxCell>
        <mxCell id="CZTcMMlewTJvzk4eFRu1-49" value="Public Timeline" style="rounded=1;arcSize=10;whiteSpace=wrap;html=1;align=center;fillColor=#d5e8d4;strokeColor=#82b366;" vertex="1" parent="1">
          <mxGeometry x="170" y="340" width="100" height="30" as="geometry" />
        </mxCell>
        <mxCell id="CZTcMMlewTJvzk4eFRu1-50" value="Error Message" style="rounded=1;arcSize=10;whiteSpace=wrap;html=1;align=center;fillColor=#d5e8d4;strokeColor=#82b366;" vertex="1" parent="1">
          <mxGeometry x="40" y="240" width="85" height="30" as="geometry" />
        </mxCell>
        <mxCell id="CZTcMMlewTJvzk4eFRu1-51" style="edgeStyle=orthogonalEdgeStyle;rounded=0;orthogonalLoop=1;jettySize=auto;html=1;exitX=0.5;exitY=1;exitDx=0;exitDy=0;entryX=0.5;entryY=0;entryDx=0;entryDy=0;" edge="1" parent="1" source="CZTcMMlewTJvzk4eFRu1-52">
          <mxGeometry relative="1" as="geometry">
            <mxPoint x="220" y="490" as="targetPoint" />
          </mxGeometry>
        </mxCell>
        <mxCell id="CZTcMMlewTJvzk4eFRu1-52" value="User Timeline" style="rounded=1;arcSize=10;whiteSpace=wrap;html=1;align=center;fillColor=#d5e8d4;strokeColor=#82b366;" vertex="1" parent="1">
          <mxGeometry x="170" y="440" width="100" height="30" as="geometry" />
        </mxCell>
        <mxCell id="CZTcMMlewTJvzk4eFRu1-53" style="edgeStyle=orthogonalEdgeStyle;rounded=0;orthogonalLoop=1;jettySize=auto;html=1;exitX=0.5;exitY=1;exitDx=0;exitDy=0;entryX=0.5;entryY=0;entryDx=0;entryDy=0;" edge="1" parent="1">
          <mxGeometry relative="1" as="geometry">
            <mxPoint x="220" y="520" as="sourcePoint" />
            <mxPoint x="220" y="540" as="targetPoint" />
          </mxGeometry>
        </mxCell>
        <mxCell id="CZTcMMlewTJvzk4eFRu1-54" style="edgeStyle=orthogonalEdgeStyle;rounded=0;orthogonalLoop=1;jettySize=auto;html=1;exitX=0.5;exitY=1;exitDx=0;exitDy=0;entryX=0.5;entryY=0;entryDx=0;entryDy=0;" edge="1" parent="1">
          <mxGeometry relative="1" as="geometry">
            <mxPoint x="220" y="620" as="sourcePoint" />
            <mxPoint x="220" y="640" as="targetPoint" />
          </mxGeometry>
        </mxCell>
        <mxCell id="CZTcMMlewTJvzk4eFRu1-55" style="edgeStyle=orthogonalEdgeStyle;rounded=0;orthogonalLoop=1;jettySize=auto;html=1;exitX=0;exitY=0.5;exitDx=0;exitDy=0;entryX=0;entryY=0.5;entryDx=0;entryDy=0;" edge="1" parent="1" source="CZTcMMlewTJvzk4eFRu1-63" target="CZTcMMlewTJvzk4eFRu1-61">
          <mxGeometry relative="1" as="geometry">
            <Array as="points">
              <mxPoint x="130" y="605" />
              <mxPoint x="130" y="505" />
            </Array>
            <mxPoint x="330" y="560" as="targetPoint" />
          </mxGeometry>
        </mxCell>
        <mxCell id="CZTcMMlewTJvzk4eFRu1-56" style="edgeStyle=orthogonalEdgeStyle;rounded=0;orthogonalLoop=1;jettySize=auto;html=1;exitX=0;exitY=0.5;exitDx=0;exitDy=0;exitPerimeter=0;entryX=1;entryY=0.5;entryDx=0;entryDy=0;" edge="1" parent="1" source="CZTcMMlewTJvzk4eFRu1-57" target="CZTcMMlewTJvzk4eFRu1-61">
          <mxGeometry relative="1" as="geometry" />
        </mxCell>
        <mxCell id="CZTcMMlewTJvzk4eFRu1-57" value="Cheep Text" style="shape=note;size=20;whiteSpace=wrap;html=1;fillColor=#dae8fc;strokeColor=#6c8ebf;align=left;" vertex="1" parent="1">
          <mxGeometry x="300" y="490" width="90" height="30" as="geometry" />
        </mxCell>
        <mxCell id="CZTcMMlewTJvzk4eFRu1-58" style="edgeStyle=orthogonalEdgeStyle;rounded=0;orthogonalLoop=1;jettySize=auto;html=1;exitX=0.5;exitY=1;exitDx=0;exitDy=0;entryX=0.5;entryY=0;entryDx=0;entryDy=0;" edge="1" parent="1">
          <mxGeometry relative="1" as="geometry">
            <mxPoint x="220" y="570" as="sourcePoint" />
            <mxPoint x="220" y="590" as="targetPoint" />
          </mxGeometry>
        </mxCell>
        <mxCell id="CZTcMMlewTJvzk4eFRu1-59" value="&lt;font style=&quot;font-size: 7px;&quot;&gt;Yes&lt;/font&gt;" style="text;html=1;align=center;verticalAlign=middle;resizable=0;points=[];autosize=1;strokeColor=none;fillColor=none;" vertex="1" parent="1">
          <mxGeometry x="213" y="610" width="30" height="30" as="geometry" />
        </mxCell>
        <mxCell id="CZTcMMlewTJvzk4eFRu1-60" value="&lt;font style=&quot;font-size: 7px;&quot;&gt;No&lt;/font&gt;" style="text;html=1;align=center;verticalAlign=middle;resizable=0;points=[];autosize=1;strokeColor=none;fillColor=none;" vertex="1" parent="1">
          <mxGeometry x="149" y="585" width="30" height="30" as="geometry" />
        </mxCell>
        <mxCell id="CZTcMMlewTJvzk4eFRu1-61" value="Cheep Box" style="rounded=1;arcSize=10;whiteSpace=wrap;html=1;align=center;fillColor=#d5e8d4;strokeColor=#82b366;" vertex="1" parent="1">
          <mxGeometry x="170" y="490" width="100" height="30" as="geometry" />
        </mxCell>
        <mxCell id="CZTcMMlewTJvzk4eFRu1-62" value="Share" style="ellipse;whiteSpace=wrap;html=1;fillColor=#f8cecc;strokeColor=#b85450;" vertex="1" parent="1">
          <mxGeometry x="170" y="540" width="100" height="30" as="geometry" />
        </mxCell>
        <mxCell id="CZTcMMlewTJvzk4eFRu1-63" value="Succesful" style="shape=hexagon;perimeter=hexagonPerimeter2;whiteSpace=wrap;html=1;fixedSize=1;fillColor=#fff2cc;strokeColor=#d6b656;" vertex="1" parent="1">
          <mxGeometry x="170" y="590" width="100" height="30" as="geometry" />
        </mxCell>
        <mxCell id="CZTcMMlewTJvzk4eFRu1-64" style="edgeStyle=orthogonalEdgeStyle;rounded=0;orthogonalLoop=1;jettySize=auto;html=1;exitX=0.5;exitY=1;exitDx=0;exitDy=0;entryX=0.5;entryY=0;entryDx=0;entryDy=0;" edge="1" parent="1" source="CZTcMMlewTJvzk4eFRu1-65" target="CZTcMMlewTJvzk4eFRu1-69">
          <mxGeometry relative="1" as="geometry" />
        </mxCell>
        <mxCell id="CZTcMMlewTJvzk4eFRu1-65" value="User Timeline" style="rounded=1;arcSize=10;whiteSpace=wrap;html=1;align=center;fillColor=#d5e8d4;strokeColor=#82b366;" vertex="1" parent="1">
          <mxGeometry x="170" y="640" width="100" height="30" as="geometry" />
        </mxCell>
        <mxCell id="CZTcMMlewTJvzk4eFRu1-66" value="Error Message" style="rounded=1;arcSize=10;whiteSpace=wrap;html=1;align=center;fillColor=#d5e8d4;strokeColor=#82b366;" vertex="1" parent="1">
          <mxGeometry x="40" y="540" width="85" height="30" as="geometry" />
        </mxCell>
        <mxCell id="CZTcMMlewTJvzk4eFRu1-67" style="edgeStyle=orthogonalEdgeStyle;rounded=0;orthogonalLoop=1;jettySize=auto;html=1;exitX=0.5;exitY=1;exitDx=0;exitDy=0;" edge="1" parent="1" source="CZTcMMlewTJvzk4eFRu1-68" target="CZTcMMlewTJvzk4eFRu1-52">
          <mxGeometry relative="1" as="geometry" />
        </mxCell>
        <mxCell id="CZTcMMlewTJvzk4eFRu1-68" value="Your Timeline" style="ellipse;whiteSpace=wrap;html=1;fillColor=#f8cecc;strokeColor=#b85450;" vertex="1" parent="1">
          <mxGeometry x="170" y="390" width="100" height="30" as="geometry" />
        </mxCell>
        <mxCell id="CZTcMMlewTJvzk4eFRu1-69" value="Logout" style="ellipse;whiteSpace=wrap;html=1;fillColor=#f8cecc;strokeColor=#b85450;" vertex="1" parent="1">
          <mxGeometry x="170" y="690" width="100" height="30" as="geometry" />
        </mxCell>
        <mxCell id="CZTcMMlewTJvzk4eFRu1-70" value="Inserting" style="shape=note;size=20;whiteSpace=wrap;html=1;fillColor=#dae8fc;strokeColor=#6c8ebf;" vertex="1" parent="1">
          <mxGeometry x="-110" y="320" width="90" height="30" as="geometry" />
        </mxCell>
        <mxCell id="CZTcMMlewTJvzk4eFRu1-71" value="Display" style="rounded=1;arcSize=10;whiteSpace=wrap;html=1;align=center;fillColor=#d5e8d4;strokeColor=#82b366;" vertex="1" parent="1">
          <mxGeometry x="-105" y="380" width="80" height="30" as="geometry" />
        </mxCell>
        <mxCell id="CZTcMMlewTJvzk4eFRu1-72" value="Condition" style="shape=hexagon;perimeter=hexagonPerimeter2;whiteSpace=wrap;html=1;fixedSize=1;fillColor=#fff2cc;strokeColor=#d6b656;" vertex="1" parent="1">
          <mxGeometry x="-110" y="500" width="90" height="30" as="geometry" />
        </mxCell>
        <mxCell id="CZTcMMlewTJvzk4eFRu1-73" value="Button" style="ellipse;whiteSpace=wrap;html=1;fillColor=#f8cecc;strokeColor=#b85450;" vertex="1" parent="1">
          <mxGeometry x="-105" y="440" width="80" height="30" as="geometry" />
        </mxCell>
        <mxCell id="CZTcMMlewTJvzk4eFRu1-74" value="&lt;font style=&quot;font-size: 18px;&quot;&gt;&lt;b&gt;Browsing&lt;/b&gt;&lt;/font&gt;" style="text;html=1;align=center;verticalAlign=middle;whiteSpace=wrap;rounded=0;strokeColor=default;" vertex="1" parent="1">
          <mxGeometry x="175" y="80" width="90" height="30" as="geometry" />
        </mxCell>
        <mxCell id="CZTcMMlewTJvzk4eFRu1-75" value="&lt;font style=&quot;font-size: 18px;&quot;&gt;&lt;b&gt;Login&lt;/b&gt;&lt;/font&gt;" style="text;html=1;align=center;verticalAlign=middle;whiteSpace=wrap;rounded=0;strokeColor=default;" vertex="1" parent="1">
          <mxGeometry x="500" y="80" width="60" height="30" as="geometry" />
        </mxCell>
        <mxCell id="CZTcMMlewTJvzk4eFRu1-76" value="&lt;font style=&quot;font-size: 22px;&quot;&gt;&lt;b&gt;Authorized Journey&lt;/b&gt;&lt;/font&gt;" style="text;html=1;align=center;verticalAlign=middle;whiteSpace=wrap;rounded=0;strokeColor=default;" vertex="1" parent="1">
          <mxGeometry x="278" y="10" width="210" height="30" as="geometry" />
        </mxCell>
      </root>
    </mxGraphModel>
  </diagram>
</mxfile>
